# xmcd
#
# Track frame offsets: 
#        150
#        13488
#        26707
#        34388
#        50215
#        61871
#        75611
#        89773
#        99043
#        109689
#        122753
#        132517
#        143652
#        156150
#        170145
#        187073
#        202057
#        214769
#        226148
#        238512
#
# Disc length: 3328 seconds
#
# Revision: 0
# Processed by: cddbd v1.5.2PL0 Copyright (c) Steve Scherf et al.
# Submitted via: ExactAudioCopyFreeDBPlugin 1.0
#
DISCID=250cfe14
DTITLE=Various Artist - Best of Country
DYEAR=2013
DGENRE=Country
TTITLE0=B.J. Thomas - Raindrop Keeps Falling On My Head
TTITLE1=Alabama - Patches
TTITLE2=Dolly Parton - Puppy Love
TTITLE3=Boxcar Willie - Mule Train
TTITLE4=Donna Fargo - The Happiest Girl In The USA
TTITLE5=Doug Stone - Addicted To A Dollar
TTITLE6=The Hot Billys - Cotton Eyed Joe
TTITLE7=Willie Nelson - One Step Beyond
TTITLE8=Ferlin Husky - Wings Of A Dove
TTITLE9=Kenny Rogers - Ruby Don't Take Your Love To Town
TTITLE10=Mickey Gilley - Fraulein
TTITLE11=Jack Greene - There Goes My Everything
TTITLE12=Roy Orbison - Cryin'
TTITLE13=Lee Greenwood - Dixie Road
TTITLE14=Lynn Anderson - Blue Bayou
TTITLE15=Jeannie C. Riley - Harper Valley P.T.A.
TTITLE16=Porter Wagoner - A Satisfied Mind
TTITLE17=Bill Anderson and Vince Gill - Slippin' Away
TTITLE18=Johnny Paycheck - Take This Job And Shove It
TTITLE19=Sandy Posey - I Will Follow Him
EXTD=
EXTT0=
EXTT1=
EXTT2=
EXTT3=
EXTT4=
EXTT5=
EXTT6=
EXTT7=
EXTT8=
EXTT9=
EXTT10=
EXTT11=
EXTT12=
EXTT13=
EXTT14=
EXTT15=
EXTT16=
EXTT17=
EXTT18=
EXTT19=
PLAYORDER=
